<svg width="72" height="66" viewBox="0 0 72 66" fill="none" xmlns="http://www.w3.org/2000/svg">
<g clip-path="url(#clip0_85_12)">
<path d="M61.6915 0H10.3085C7.57455 0 4.95253 1.05213 3.0193 2.92494C1.08608 4.79775 0 7.33783 0 9.98638V41.6632C0 44.3117 1.08608 46.8518 3.0193 48.7246C4.95253 50.5974 7.57455 51.6496 10.3085 51.6496H26.8151V61.0068H21.7691C21.0856 61.0068 20.4301 61.2698 19.9467 61.738C19.4634 62.2062 19.1919 62.8413 19.1919 63.5034C19.1919 64.1655 19.4634 64.8006 19.9467 65.2688C20.4301 65.737 21.0856 66 21.7691 66H50.2309C50.9144 66 51.5699 65.737 52.0532 65.2688C52.5366 64.8006 52.8081 64.1655 52.8081 63.5034C52.8081 62.8413 52.5366 62.2062 52.0532 61.738C51.5699 61.2698 50.9144 61.0068 50.2309 61.0068H45.1849V51.6496H61.6915C64.4255 51.6496 67.0475 50.5974 68.9807 48.7246C70.9139 46.8518 72 44.3117 72 41.6632V9.98638C72 7.33783 70.9139 4.79775 68.9807 2.92494C67.0475 1.05213 64.4255 0 61.6915 0ZM40.0306 61.0068H31.9694V51.6496H40.0306V61.0068ZM66.8457 41.6632C66.8457 42.9875 66.3027 44.2575 65.3361 45.1939C64.3695 46.1303 63.0585 46.6564 61.6915 46.6564H10.3085C8.94154 46.6564 7.63053 46.1303 6.66392 45.1939C5.69731 44.2575 5.15427 42.9875 5.15427 41.6632V9.98638C5.15427 8.6621 5.69731 7.39207 6.66392 6.45566C7.63053 5.51926 8.94154 4.99319 10.3085 4.99319H61.6915C63.0585 4.99319 64.3695 5.51926 65.3361 6.45566C66.3027 7.39207 66.8457 8.6621 66.8457 9.98638V41.6632Z" fill="black"/>
<g clip-path="url(#clip1_85_12)">
<path d="M49.34 29.307L47.129 21.565C46.8608 20.6374 46.2991 19.8217 45.5282 19.2402C44.7573 18.6588 43.8186 18.3429 42.853 18.34H42.734C41.4838 18.3696 40.2568 18.6835 39.146 19.258C38.608 19.5155 38.0193 19.6494 37.423 19.65H36.5V16.763C36.5002 16.409 36.641 16.0696 36.8913 15.8193C37.1416 15.569 37.481 15.4283 37.835 15.428C38.4539 15.4275 39.0474 15.1814 39.4851 14.7439C39.9229 14.3063 40.1692 13.713 40.17 13.094V11.906C40.17 11.7734 40.1173 11.6462 40.0235 11.5525C39.9298 11.4587 39.8026 11.406 39.67 11.406C39.5374 11.406 39.4102 11.4587 39.3164 11.5525C39.2227 11.6462 39.17 11.7734 39.17 11.906V13.094C39.1694 13.4478 39.0286 13.787 38.7783 14.0371C38.528 14.2871 38.1888 14.4277 37.835 14.428C37.2159 14.4288 36.6225 14.6751 36.1848 15.1128C35.747 15.5505 35.5008 16.144 35.5 16.763V19.649H34.577C33.9806 19.6484 33.3919 19.5145 32.854 19.257C31.7432 18.6825 30.5162 18.3686 29.266 18.339H29.147C28.1814 18.3419 27.2427 18.6578 26.4717 19.2392C25.7008 19.8207 25.1391 20.6364 24.871 21.564L22.693 29.19C22.4954 29.8119 22.4474 30.4717 22.553 31.1157C22.6586 31.7596 22.9147 32.3695 23.3006 32.8958C23.6864 33.4221 24.191 33.8498 24.7734 34.1442C25.3558 34.4386 25.9994 34.5914 26.652 34.59C27.504 34.5907 28.3356 34.3288 29.0334 33.8399C29.7313 33.3511 30.2615 32.659 30.552 31.858L31.415 29.481C31.5188 29.197 31.7072 28.9517 31.9549 28.7782C32.2026 28.6047 32.4976 28.5115 32.8 28.511H39.2C39.5024 28.5115 39.7973 28.6047 40.045 28.7782C40.2927 28.9517 40.4812 29.197 40.585 29.481L41.385 31.681C41.7311 32.6871 42.4402 33.5278 43.3734 34.0386C44.3067 34.5494 45.397 34.6936 46.431 34.443C46.9608 34.2988 47.4568 34.0508 47.8901 33.7135C48.3234 33.3761 48.6854 32.9561 48.9552 32.4778C49.2249 31.9995 49.397 31.4724 49.4615 30.9271C49.5261 30.3818 49.4817 29.8291 49.331 29.301L49.34 29.307ZM48.094 31.991C47.8894 32.3555 47.614 32.6754 47.2839 32.9318C46.9538 33.1882 46.5757 33.3759 46.172 33.484C45.38 33.6713 44.5467 33.5557 43.8356 33.1599C43.1245 32.7641 42.5871 32.1168 42.329 31.345L41.529 29.145C41.3551 28.667 41.0383 28.254 40.6217 27.9622C40.205 27.6704 39.7086 27.514 39.2 27.514H32.8C32.2924 27.5148 31.7973 27.6715 31.3817 27.9628C30.966 28.2542 30.6499 28.6661 30.476 29.143L29.607 31.52C29.4486 31.9557 29.1961 32.3511 28.8673 32.6779C28.5385 33.0047 28.1417 33.2549 27.705 33.4106C27.2684 33.5663 26.8027 33.6236 26.3414 33.5786C25.88 33.5336 25.4343 33.3872 25.036 33.15C24.4298 32.7758 23.9651 32.2108 23.715 31.5438C23.4648 30.8768 23.4434 30.1455 23.654 29.465L25.832 21.84C26.04 21.1209 26.4754 20.4886 27.0731 20.0379C27.6708 19.5872 28.3984 19.3423 29.147 19.34H29.266C30.3656 19.3707 31.444 19.6503 32.42 20.158C33.0933 20.4807 33.8303 20.6488 34.577 20.65H37.423C38.1697 20.6488 38.9066 20.4807 39.58 20.158C40.5559 19.6503 41.6343 19.3707 42.734 19.34H42.853C43.6015 19.3423 44.3292 19.5872 44.9268 20.0379C45.5245 20.4886 45.96 21.1209 46.168 21.84L48.379 29.581C48.4942 29.9815 48.5284 30.4009 48.4795 30.8147C48.4305 31.2286 48.2995 31.6285 48.094 31.991ZM31.217 24.118C31.217 24.2506 31.1643 24.3778 31.0705 24.4716C30.9768 24.5653 30.8496 24.618 30.717 24.618H29.8V25.536C29.8 25.6686 29.7473 25.7958 29.6535 25.8896C29.5598 25.9833 29.4326 26.036 29.3 26.036C29.1674 26.036 29.0402 25.9833 28.9464 25.8896C28.8527 25.7958 28.8 25.6686 28.8 25.536V24.618H27.879C27.7464 24.618 27.6192 24.5653 27.5254 24.4716C27.4317 24.3778 27.379 24.2506 27.379 24.118C27.379 23.9854 27.4317 23.8582 27.5254 23.7645C27.6192 23.6707 27.7464 23.618 27.879 23.618H28.8V22.7C28.8 22.5674 28.8527 22.4402 28.9464 22.3465C29.0402 22.2527 29.1674 22.2 29.3 22.2C29.4326 22.2 29.5598 22.2527 29.6535 22.3465C29.7473 22.4402 29.8 22.5674 29.8 22.7V23.619H30.719C30.8511 23.6195 30.9776 23.6723 31.0709 23.7658C31.1642 23.8593 31.2167 23.9859 31.217 24.118ZM41.717 24.479C41.549 24.4788 41.3847 24.5285 41.2449 24.6217C41.1051 24.7149 40.9962 24.8475 40.9318 25.0026C40.8674 25.1578 40.8505 25.3286 40.8832 25.4934C40.916 25.6582 40.9968 25.8095 41.1156 25.9283C41.2344 26.0471 41.3858 26.128 41.5506 26.1607C41.7154 26.1935 41.8862 26.1766 42.0413 26.1122C42.1965 26.0478 42.3291 25.9388 42.4223 25.7991C42.5155 25.6593 42.5652 25.495 42.565 25.327C42.5644 25.1023 42.4749 24.8869 42.316 24.728C42.1571 24.569 41.9417 24.4795 41.717 24.479ZM41.565 25.327C41.5652 25.2869 41.5814 25.2485 41.6098 25.2202C41.6383 25.1919 41.6768 25.176 41.717 25.176C41.7568 25.1763 41.795 25.1923 41.8231 25.2206C41.8512 25.2489 41.867 25.2871 41.867 25.327C41.867 25.493 41.565 25.493 41.565 25.327ZM44.135 22.06C43.967 22.06 43.8028 22.1098 43.6632 22.2032C43.5236 22.2965 43.4147 22.4291 43.3505 22.5843C43.2863 22.7395 43.2695 22.9103 43.3024 23.075C43.3352 23.2397 43.4162 23.391 43.535 23.5097C43.6538 23.6284 43.8052 23.7092 43.97 23.7418C44.1347 23.7745 44.3054 23.7575 44.4606 23.6931C44.6157 23.6287 44.7482 23.5197 44.8414 23.38C44.9345 23.2402 44.9842 23.076 44.984 22.908C44.9837 22.683 44.8941 22.4673 44.735 22.3083C44.5758 22.1493 44.36 22.06 44.135 22.06ZM43.984 22.908C43.9882 22.8712 44.0059 22.8373 44.0335 22.8126C44.0612 22.788 44.0969 22.7744 44.134 22.7744C44.171 22.7744 44.2068 22.788 44.2344 22.8126C44.2621 22.8373 44.2797 22.8712 44.284 22.908C44.286 23.074 43.984 23.074 43.984 22.908Z" fill="black"/>
</g>
</g>
<defs>
<clipPath id="clip0_85_12">
<rect width="72" height="66" fill="white"/>
</clipPath>
<clipPath id="clip1_85_12">
<rect width="32" height="40" fill="white" transform="translate(20 7)"/>
</clipPath>
</defs>
</svg>
