<svg width="72" height="66" viewBox="0 0 72 66" fill="none" xmlns="http://www.w3.org/2000/svg">
<g clip-path="url(#clip0_85_3)">
<path d="M61.6915 0H10.3085C7.57455 0 4.95253 1.05213 3.0193 2.92494C1.08608 4.79775 0 7.33783 0 9.98638V41.6632C0 44.3117 1.08608 46.8518 3.0193 48.7246C4.95253 50.5974 7.57455 51.6496 10.3085 51.6496H26.8151V61.0068H21.7691C21.0856 61.0068 20.4301 61.2698 19.9467 61.738C19.4634 62.2062 19.1919 62.8413 19.1919 63.5034C19.1919 64.1655 19.4634 64.8006 19.9467 65.2688C20.4301 65.737 21.0856 66 21.7691 66H50.2309C50.9144 66 51.5699 65.737 52.0532 65.2688C52.5366 64.8006 52.8081 64.1655 52.8081 63.5034C52.8081 62.8413 52.5366 62.2062 52.0532 61.738C51.5699 61.2698 50.9144 61.0068 50.2309 61.0068H45.1849V51.6496H61.6915C64.4255 51.6496 67.0475 50.5974 68.9807 48.7246C70.9139 46.8518 72 44.3117 72 41.6632V9.98638C72 7.33783 70.9139 4.79775 68.9807 2.92494C67.0475 1.05213 64.4255 0 61.6915 0ZM40.0306 61.0068H31.9694V51.6496H40.0306V61.0068ZM66.8457 41.6632C66.8457 42.9875 66.3027 44.2575 65.3361 45.1939C64.3695 46.1303 63.0585 46.6564 61.6915 46.6564H10.3085C8.94154 46.6564 7.63053 46.1303 6.66392 45.1939C5.69731 44.2575 5.15427 42.9875 5.15427 41.6632V9.98638C5.15427 8.6621 5.69731 7.39207 6.66392 6.45566C7.63053 5.51926 8.94154 4.99319 10.3085 4.99319H61.6915C63.0585 4.99319 64.3695 5.51926 65.3361 6.45566C66.3027 7.39207 66.8457 8.6621 66.8457 9.98638V41.6632Z" fill="black"/>
<g clip-path="url(#clip1_85_3)">
<path d="M42.5625 23.6H29.4375C25.8131 23.6 22.875 26.2639 22.875 29.55C22.875 32.8361 25.8131 35.5 29.4375 35.5C31.2225 35.5 32.8369 34.8489 34.02 33.8H37.9781C39.1613 34.8489 40.7756 35.5 42.5606 35.5C46.185 35.5 49.1231 32.8361 49.1231 29.55C49.1231 26.2639 46.1869 23.6 42.5625 23.6ZM32.25 30.4H30.375V32.1H28.5V30.4H26.625V28.7H28.5V27H30.375V28.7H32.25V30.4ZM41.625 27H43.5V27.85L43.0313 28.7H42.0938L41.625 27.85V27ZM39.75 30.4V28.7H40.6875L41.625 29.125V29.975L40.6875 30.4H39.75ZM43.5 32.1H41.625V31.25L42.0938 30.4H43.0313L43.5 31.25V32.1ZM45.375 30.4H44.4375L43.5 29.975V29.125L44.4375 28.7H45.375V30.4Z" fill="black"/>
<path d="M30.6957 20.4907L32.0213 21.6926C34.1476 19.7648 37.8526 19.7665 39.9769 21.6926L41.3026 20.4907C38.4676 17.9237 33.5307 17.9237 30.6957 20.4907Z" fill="black"/>
<path d="M36 15.1C39.0056 15.1 41.8294 16.1608 43.9556 18.0869L45.2813 16.885C42.8025 14.6376 39.5044 13.4 36 13.4C32.4938 13.4 29.1994 14.6376 26.7188 16.885L28.0444 18.0869C30.1706 16.1608 32.9944 15.1 36 15.1Z" fill="black"/>
</g>
</g>
<defs>
<clipPath id="clip0_85_3">
<rect width="72" height="66" fill="white"/>
</clipPath>
<clipPath id="clip1_85_3">
<rect width="30" height="34" fill="white" transform="translate(21 10)"/>
</clipPath>
</defs>
</svg>
