<svg width="72" height="66" viewBox="0 0 72 66" fill="none" xmlns="http://www.w3.org/2000/svg">
<g clip-path="url(#clip0_87_36)">
<path d="M71.339 52.0089L67.6374 44.6978V11.2222C67.6374 9.57199 66.9707 7.98934 65.7841 6.82245C64.5975 5.65555 62.9881 5 61.3099 5H10.6901C9.01193 5 7.40251 5.65555 6.21588 6.82245C5.02925 7.98934 4.3626 9.57199 4.3626 11.2222V44.6978L0.661029 52.0089C0.181786 52.9573 -0.0433646 54.0103 0.00689526 55.0682C0.0571551 56.126 0.381162 57.1538 0.948238 58.0541C1.51531 58.9545 2.30669 59.6976 3.24744 60.2131C4.18819 60.7286 5.24717 60.9994 6.32412 61H65.6759C66.7528 60.9994 67.8118 60.7286 68.7526 60.2131C69.6933 59.6976 70.4847 58.9545 71.0518 58.0541C71.6188 57.1538 71.9428 56.126 71.9931 55.0682C72.0434 54.0103 71.8182 52.9573 71.339 52.0089ZM10.6901 11.2222H61.3099V42.3333H10.6901V11.2222ZM6.32412 54.7778L9.48786 48.5556H62.5121L65.6759 54.7778H6.32412Z" fill="black"/>
<path d="M41.7513 25.2307H29.2504C25.7984 25.2307 23 27.6415 23 30.6153C23 33.5892 25.7984 35.9999 29.2504 35.9999C30.9506 35.9999 32.4882 35.4107 33.615 34.4615H37.385C38.5118 35.4107 40.0494 35.9999 41.7496 35.9999C45.2016 35.9999 48 33.5892 48 30.6153C48 27.6415 45.2034 25.2307 41.7513 25.2307ZM31.9292 31.3846H30.1434V32.923H28.3575V31.3846H26.5717V29.8461H28.3575V28.3076H30.1434V29.8461H31.9292V31.3846ZM40.8584 28.3076H42.6443V29.0769L42.1978 29.8461H41.3049L40.8584 29.0769V28.3076ZM39.0726 31.3846V29.8461H39.9655L40.8584 30.2307V30.9999L39.9655 31.3846H39.0726ZM42.6443 32.923H40.8584V32.1538L41.3049 31.3846H42.1978L42.6443 32.1538V32.923ZM44.4301 31.3846H43.5372L42.6443 30.9999V30.2307L43.5372 29.8461H44.4301V31.3846Z" fill="black"/>
<path d="M30.4489 22.4169L31.7114 23.5046C33.7366 21.7599 37.2654 21.7615 39.2888 23.5046L40.5514 22.4169C37.8512 20.0938 33.149 20.0938 30.4489 22.4169Z" fill="black"/>
<path d="M35.5009 17.5385C38.3636 17.5385 41.0531 18.4985 43.0783 20.2415L44.3408 19.1538C41.98 17.12 38.8387 16 35.5009 16C32.1614 16 29.0237 17.12 26.661 19.1538L27.9236 20.2415C29.9487 18.4985 32.6382 17.5385 35.5009 17.5385Z" fill="black"/>
</g>
<defs>
<clipPath id="clip0_87_36">
<rect width="72" height="66" fill="white"/>
</clipPath>
</defs>
</svg>
