<svg width="72" height="66" viewBox="0 0 72 66" fill="none" xmlns="http://www.w3.org/2000/svg">
<g clip-path="url(#clip0_85_3)">
<path d="M61.6915 0H10.3085C7.57455 0 4.95253 1.05213 3.0193 2.92494C1.08608 4.79775 0 7.33783 0 9.98638V41.6632C0 44.3117 1.08608 46.8518 3.0193 48.7246C4.95253 50.5974 7.57455 51.6496 10.3085 51.6496H26.8151V61.0068H21.7691C21.0856 61.0068 20.4301 61.2698 19.9467 61.738C19.4634 62.2062 19.1919 62.8413 19.1919 63.5034C19.1919 64.1655 19.4634 64.8006 19.9467 65.2688C20.4301 65.737 21.0856 66 21.7691 66H50.2309C50.9144 66 51.5699 65.737 52.0532 65.2688C52.5366 64.8006 52.8081 64.1655 52.8081 63.5034C52.8081 62.8413 52.5366 62.2062 52.0532 61.738C51.5699 61.2698 50.9144 61.0068 50.2309 61.0068H45.1849V51.6496H61.6915C64.4255 51.6496 67.0475 50.5974 68.9807 48.7246C70.9139 46.8518 72 44.3117 72 41.6632V9.98638C72 7.33783 70.9139 4.79775 68.9807 2.92494C67.0475 1.05213 64.4255 0 61.6915 0ZM40.0306 61.0068H31.9694V51.6496H40.0306V61.0068ZM66.8457 41.6632C66.8457 42.9875 66.3027 44.2575 65.3361 45.1939C64.3695 46.1303 63.0585 46.6564 61.6915 46.6564H10.3085C8.94154 46.6564 7.63053 46.1303 6.66392 45.1939C5.69731 44.2575 5.15427 42.9875 5.15427 41.6632V9.98638C5.15427 8.6621 5.69731 7.39207 6.66392 6.45566C7.63053 5.51926 8.94154 4.99319 10.3085 4.99319H61.6915C63.0585 4.99319 64.3695 5.51926 65.3361 6.45566C66.3027 7.39207 66.8457 8.6621 66.8457 9.98638V41.6632Z" fill="black"/>
<path d="M36.81 26.608C37.41 25.936 36.93 24.856 35.67 24.808C34.89 24.76 34.11 25.72 33.81 26.344C33.33 27.352 33.66 28.744 34.32 29.608C34.65 29.992 34.86 30.184 34.83 29.992C34.65 27.616 36.03 27.472 36.81 26.608Z" fill="black"/>
<path d="M47.52 13.744C43.8 16.648 40.71 19.576 37.62 22.792C37.62 22.792 36.84 23.608 36.36 24.136C36.18 24.328 36.21 24.64 36.45 24.784L36.96 25.12C37.2 25.288 37.56 25.264 37.77 25.072C38.31 24.592 39.18 23.848 39.18 23.848C42.6 20.824 45.63 17.848 48.51 14.416C48.99 13.888 48.09 13.288 47.52 13.744Z" fill="black"/>
<path d="M45.45 23.1999C43.83 22.1919 42.21 22.7919 40.74 23.4399C40.41 23.7279 40.11 24.0159 39.78 24.3039C39.78 24.3039 38.31 25.5999 37.98 25.8639L37.83 25.9839C37.83 26.3199 37.68 26.6799 37.44 26.9679C37.2 27.2559 36.9 27.4719 36.63 27.6639C36 28.1199 35.52 28.4799 35.64 29.9199C35.7 30.3279 35.37 30.5679 35.07 30.6399C34.38 30.8319 33.93 30.2559 33.66 29.9199C32.91 28.9599 32.46 27.3519 33.06 26.0799C33.39 25.4079 34.2 24.3039 35.34 24.1599L35.4 24.1119C35.64 23.8479 36.66 22.7679 36.93 22.4799C36.87 22.3359 36.78 22.2159 36.75 22.0479C36.3 20.5599 35.34 18.6399 31.26 18.8319C24 19.9359 22.32 25.6719 23.85 30.0399C24.36 31.5279 25.02 32.2239 25.68 33.0159C26.07 33.4719 27.24 34.36 27.33 34.408C29.04 35.464 31.02 36.0879 33.09 36.3039C37.62 36.7839 42.48 35.3199 45.36 32.2959C49.14 28.3359 47.94 24.7359 45.45 23.1999ZM28.41 23.0079C28.59 21.9279 29.82 21.1599 31.17 21.3039C32.52 21.4479 33.48 22.4559 33.3 23.5359C33.12 24.6159 31.89 25.3839 30.54 25.2399C29.16 25.0959 28.23 24.1119 28.41 23.0079ZM27.63 30.4479C26.28 30.3039 25.32 29.2959 25.5 28.2159C25.68 27.1359 26.91 26.3679 28.26 26.5119C29.61 26.6559 30.57 27.6639 30.39 28.7439C30.21 29.8239 28.98 30.5919 27.63 30.4479ZM34.56 32.8959C34.38 33.9759 33.15 34.7439 31.8 34.5999C30.45 34.4559 29.49 33.4479 29.67 32.3679C29.85 31.2879 31.08 30.5199 32.43 30.6639C33.78 30.8319 34.71 31.8159 34.56 32.8959ZM41.46 32.3679C41.28 33.4479 40.05 34.2159 38.7 34.0719C37.35 33.9279 36.39 32.9199 36.57 31.8399C36.75 30.7599 37.98 29.9919 39.33 30.1359C40.68 30.2799 41.64 31.2879 41.46 32.3679ZM45.87 28.3839C45.69 29.4639 44.46 30.2319 43.11 30.0879C41.76 29.9439 40.8 28.9359 40.98 27.8559C41.16 26.7759 42.39 26.0079 43.74 26.1519C45.09 26.3199 46.05 27.3279 45.87 28.3839Z" fill="black"/>
</g>
<defs>
<clipPath id="clip0_85_3">
<rect width="72" height="66" fill="white"/>
</clipPath>
</defs>
</svg>
