<svg width="72" height="66" viewBox="0 0 72 66" fill="none" xmlns="http://www.w3.org/2000/svg">
<g clip-path="url(#clip0_85_3)">
<path d="M61.6915 0H10.3085C7.57455 0 4.95253 1.05213 3.0193 2.92494C1.08608 4.79775 0 7.33783 0 9.98638V41.6632C0 44.3117 1.08608 46.8518 3.0193 48.7246C4.95253 50.5974 7.57455 51.6496 10.3085 51.6496H26.8151V61.0068H21.7691C21.0856 61.0068 20.4301 61.2698 19.9467 61.738C19.4634 62.2062 19.1919 62.8413 19.1919 63.5034C19.1919 64.1655 19.4634 64.8006 19.9467 65.2688C20.4301 65.737 21.0856 66 21.7691 66H50.2309C50.9144 66 51.5699 65.737 52.0532 65.2688C52.5366 64.8006 52.8081 64.1655 52.8081 63.5034C52.8081 62.8413 52.5366 62.2062 52.0532 61.738C51.5699 61.2698 50.9144 61.0068 50.2309 61.0068H45.1849V51.6496H61.6915C64.4255 51.6496 67.0475 50.5974 68.9807 48.7246C70.9139 46.8518 72 44.3117 72 41.6632V9.98638C72 7.33783 70.9139 4.79775 68.9807 2.92494C67.0475 1.05213 64.4255 0 61.6915 0ZM40.0306 61.0068H31.9694V51.6496H40.0306V61.0068ZM66.8457 41.6632C66.8457 42.9875 66.3027 44.2575 65.3361 45.1939C64.3695 46.1303 63.0585 46.6564 61.6915 46.6564H10.3085C8.94154 46.6564 7.63053 46.1303 6.66392 45.1939C5.69731 44.2575 5.15427 42.9875 5.15427 41.6632V9.98638C5.15427 8.6621 5.69731 7.39207 6.66392 6.45566C7.63053 5.51926 8.94154 4.99319 10.3085 4.99319H61.6915C63.0585 4.99319 64.3695 5.51926 65.3361 6.45566C66.3027 7.39207 66.8457 8.6621 66.8457 9.98638V41.6632Z" fill="black"/>
<g clip-path="url(#clip1_85_3)">
<path d="M27.9337 34.6878C28.9124 35.8625 30.3828 37 32.0752 37C33.0381 37 33.856 36.5625 34.7351 36.2431C35.5447 35.9549 36.4006 35.8068 37.2635 35.8056C38.096 35.801 38.921 35.9572 39.69 36.265C40.0978 36.4312 40.5011 36.6084 40.9157 36.7616C41.3364 36.9183 41.7834 36.9992 42.2343 37C43.0685 36.9908 43.8803 36.7384 44.5634 36.2759C46.5481 34.9634 48.0184 32.6578 49.0606 30.6387C49.1649 30.4375 49.2645 30.2341 49.3642 30.0328C49.5296 29.6959 49.2691 29.2694 48.8069 29.0244C46.7678 27.9438 45.5738 26.2725 45.3745 23.9669C45.1751 21.6612 46.104 19.8413 47.9686 18.52L48.3356 18.2291C48.5395 18.0672 48.4285 17.6187 48.0456 17.2687C46.6353 15.9278 44.7458 15.1605 42.7667 15.125C42.3826 15.1252 41.9992 15.1559 41.6203 15.2169C39.8984 15.5013 38.5164 16.2931 36.8942 16.2931C36.402 16.2936 35.9128 16.2198 35.4442 16.0744C34.0849 15.6544 32.7345 15.125 31.2891 15.125C31.1305 15.125 30.9696 15.125 30.8088 15.1447C29.0268 15.328 27.3628 16.0927 26.0917 17.3125C23.5859 19.6969 23.2302 23.4003 23.8556 26.5306C24.4559 29.5625 25.9331 32.2947 27.9337 34.6878Z" fill="black"/>
<path d="M36.7266 15.125C36.759 15.1278 36.7916 15.1278 36.824 15.125C41.6112 14.2631 42.1346 10.6931 42.1641 9.38939C42.1651 9.33668 42.1548 9.28433 42.1339 9.23562C42.113 9.18691 42.0819 9.1429 42.0425 9.10634C42.0032 9.06979 41.9564 9.04147 41.9052 9.02318C41.854 9.00488 41.7994 8.997 41.7449 9.00002C41.7045 8.99998 41.6642 9.00438 41.6248 9.01314C36.79 10.0938 36.287 13.4603 36.2734 14.7181C36.2746 14.7739 36.2873 14.8288 36.3109 14.8797C36.3345 14.9306 36.3684 14.9764 36.4107 15.0143C36.4529 15.0523 36.5027 15.0816 36.557 15.1007C36.6112 15.1197 36.6689 15.128 36.7266 15.125ZM41.2034 10.026C41.0109 11.3516 40.2156 13.3925 37.225 14.1363C37.4062 12.8916 38.1675 10.9185 41.2034 10.026Z" fill="black"/>
</g>
</g>
<defs>
<clipPath id="clip0_85_3">
<rect width="72" height="66" fill="white"/>
</clipPath>
<clipPath id="clip1_85_3">
<rect width="29" height="35" fill="white" transform="translate(22 9)"/>
</clipPath>
</defs>
</svg>
