<svg xmlns="http://www.w3.org/2000/svg" viewBox="0 0 32 40" x="0px" y="0px"><g><path d="M25.969,2.782H6.031a4,4,0,0,0-4,4V19.47a4,4,0,0,0,4,4h6.405v3.748H10.478a1,1,0,1,0,0,2H21.522a1,1,0,0,0,0-2H19.564V23.47h6.405a4,4,0,0,0,4-4V6.782A4,4,0,0,0,25.969,2.782ZM17.564,27.218H14.436V23.47h3.128ZM27.969,19.47a2,2,0,0,1-2,2H6.031a2,2,0,0,1-2-2V6.782a2,2,0,0,1,2-2H25.969a2,2,0,0,1,2,2Z"/></g><text x="0" y="47" fill="#000000" font-size="5px" font-weight="bold" font-family="'Helvetica Neue', Helvetica, Arial-Unicode, Arial, Sans-serif">Created by The Icon Z</text><text x="0" y="52" fill="#000000" font-size="5px" font-weight="bold" font-family="'Helvetica Neue', Helvetica, Arial-Unicode, Arial, Sans-serif">from the Noun Project</text></svg>